<svg xmlns="http://www.w3.org/2000/svg" viewBox="0 0 1920 320"><defs><style>.cls-1{fill:#fff;}.cls-2{opacity:0.8;}</style></defs><title>Deep Sheth</title><g id="Full"><g id="DS_Deep_Sheth_-_Cut_White" data-name="DS Deep Sheth - Cut White"><g id="DS_Cut" data-name="DS Cut"><g id="D_Dut" data-name="D Dut"><path class="cls-1" d="M272,160c0,83.95-60.89,152-136,152H0V257L262.9,105.21A167.47,167.47,0,0,1,272,160Z"/><g class="cls-2"><path class="cls-1" d="M249.4,76.05,0,220V8H136C183.35,8,225,35,249.4,76.05Z"/></g></g><g id="S_Cut" data-name="S Cut"><path class="cls-1" d="M576,224c0,53-53.73,96-120,96-56.83,0-104.45-31.61-116.85-74.06l96.25-55.57,83.43-48.17a119.15,119.15,0,0,1,23.41,15.06C563.14,174.52,576,198.06,576,224Z"/><g class="cls-2"><path class="cls-1" d="M566,78,476.9,129.45l-81.71,47.18a108.78,108.78,0,0,1-25.43-19.37C353.68,140.64,344,119.29,344,96c0-53,50.14-96,112-96C510.68,0,556.2,33.58,566,78Z"/></g></g></g><g id="Deep_Sheth" data-name="Deep Sheth"><path class="cls-1" d="M837.92,148.88v61.44c0,32.88-25.92,54.48-66.72,54.48H704V94.4h67C812,94.4,837.92,116,837.92,148.88Zm-37.2,1.68c0-13.68-10.08-22.56-27.12-22.56H741.2V231.2h32.16c17.28,0,27.36-8.88,27.36-22.56Z"/><path class="cls-1" d="M965.36,185.6v28.56h-73v2.16c0,16.56,8.4,23.28,19.68,23.28,7.92,0,17-4.56,17-11.28v-2.4h36c0,25.92-21.6,42.48-53.52,42.48-34.56,0-55.2-21.36-55.2-53.76v-22.8c0-32.4,20.64-53,55.2-53C943,138.8,965.36,159,965.36,185.6Zm-36.72,2.88V185.6c0-12-5.28-18-16.8-18-12.48,0-19,7.2-19.44,20.88Z"/><path class="cls-1" d="M1091.6,185.6v28.56h-73v2.16c0,16.56,8.4,23.28,19.68,23.28,7.92,0,17-4.56,17-11.28v-2.4h36c0,25.92-21.6,42.48-53.52,42.48-34.56,0-55.2-21.36-55.2-53.76v-22.8c0-32.4,20.64-53,55.2-53C1069.28,138.8,1091.6,159,1091.6,185.6Zm-36.72,2.88V185.6c0-12-5.28-18-16.8-18-12.48,0-19,7.2-19.44,20.88Z"/><path class="cls-1" d="M1225.27,190.64v25.92c0,36.48-18.48,51.84-48,51.84-10.56,0-20.16-2.16-28.31-7V320h-36V142.4h23.76l5.76,7.92c8.88-7.92,21.12-11.52,34.8-11.52C1206.79,138.8,1225.27,154.16,1225.27,190.64Zm-36,1c0-13.44-7.68-20.16-19.92-20.16S1149,177.92,1149,190.88v25.44c0,13,8.63,19.44,20.39,19.44,12.24,0,19.92-6.72,19.92-20.16Z"/><path class="cls-1" d="M1305,212v-6h37.2v8.4c0,13,15.12,20.88,32.16,20.88,12.48,0,27.12-5.52,27.12-19.2,0-31.92-92.88-13-92.88-74.16,0-27.6,18.72-51.12,63.12-51.12,43.44,0,64.32,21.6,64.32,51.84v7.92h-37.2v-8.88c0-10.32-12.24-17.28-27.6-17.28-13.92,0-25.2,5.52-25.2,16.56,0,25.2,92.88,11.76,92.88,73.44,0,30.48-23,54-65.52,54C1330.63,268.4,1305,245.12,1305,212Z"/><path class="cls-1" d="M1570.39,193.76v71h-36V193.28c0-14.64-9.12-21.84-19.2-21.84-9.84,0-19.68,6.72-19.68,19.68V264.8h-36V80h36v66.24c8.4-5,18.24-7.44,28.8-7.44C1551.67,138.8,1570.39,154.88,1570.39,193.76Z"/><path class="cls-1" d="M1699.27,185.6v28.56h-73v2.16c0,16.56,8.4,23.28,19.68,23.28,7.92,0,17-4.56,17-11.28v-2.4h36c0,25.92-21.6,42.48-53.52,42.48-34.56,0-55.2-21.36-55.2-53.76v-22.8c0-32.4,20.64-53,55.2-53C1677,138.8,1699.27,159,1699.27,185.6Zm-36.72,2.88V185.6c0-12-5.28-18-16.8-18-12.48,0-19,7.2-19.44,20.88Z"/><path class="cls-1" d="M1791,232.4v32.4h-20.16c-30,0-45.6-16.32-45.6-48.72V174.8h-16.32V142.4h16.32V108.08h36V142.4h28.08v32.4h-28.08v34.8c0,14.88,6.24,22.8,18,22.8Z"/><path class="cls-1" d="M1919.35,193.76v71h-36V193.28c0-14.64-9.12-21.84-19.2-21.84-9.84,0-19.68,6.72-19.68,19.68V264.8h-36V80h36v66.24c8.4-5,18.24-7.44,28.8-7.44C1900.63,138.8,1919.35,154.88,1919.35,193.76Z"/></g></g></g></svg>