<svg xmlns="http://www.w3.org/2000/svg" viewBox="0 0 2176 320"><defs><style>.cls-1{fill:#fff;}.cls-2{opacity:0.8;}</style></defs><title>Deep Sheth</title><g id="Full"><g id="DS_Deep_Sheth_-_Cut_White" data-name="DS Deep Sheth - Cut White"><g id="DS_Cut" data-name="DS Cut"><g id="D_Dut" data-name="D Dut"><path class="cls-1" d="M272,160c0,83.95-60.89,152-136,152H0V257L262.9,105.21A167.47,167.47,0,0,1,272,160Z"/><g class="cls-2"><path class="cls-1" d="M249.4,76.05,0,220V8H136C183.35,8,225,35,249.4,76.05Z"/></g></g><g id="S_Cut" data-name="S Cut"><path class="cls-1" d="M576,224c0,53-53.73,96-120,96-56.83,0-104.45-31.61-116.85-74.06l96.25-55.57,83.43-48.17a119.15,119.15,0,0,1,23.41,15.06C563.14,174.52,576,198.06,576,224Z"/><g class="cls-2"><path class="cls-1" d="M566,78,476.9,129.45l-81.71,47.18a108.78,108.78,0,0,1-25.43-19.37C353.68,140.64,344,119.29,344,96c0-53,50.14-96,112-96C510.68,0,556.2,33.58,566,78Z"/></g></g></g><g id="Deep_Sheth" data-name="Deep Sheth"><path class="cls-1" d="M788.43,85.43c39.64,0,66,25,66,66v53.76c0,41.27-26.34,66.24-66,66.24H707a3,3,0,0,1-3-3V88.69a3.26,3.26,0,0,1,3-3.26Zm-45.06,33.94v118.1h39.36c21.45,0,32.31-11.68,32.31-32.31V151.67c0-20.63-10.86-32.3-32.31-32.3Z"/><path class="cls-1" d="M920.38,219.82c1.36,12.49,9.5,19.55,21.72,19.55h60a3.26,3.26,0,0,1,3,3.25v25.8a3,3,0,0,1-3,3H941c-33.4,0-57.29-18.73-57.29-54.84V190.77c0-36.11,23.89-54.84,57.29-54.84H956c32,0,56.74,18.19,56.74,50.22v3.53c0,3.26-.81,4.62-3,6.52L986.08,216c-2.17,1.9-4.88,3.8-8.14,3.8ZM942.64,168c-13.57,0-21.71,7.61-22.26,21.18h55.93c0-13.57-8.15-21.18-21.18-21.18Z"/><path class="cls-1" d="M1074.29,219.82c1.36,12.49,9.5,19.55,21.72,19.55h60a3.26,3.26,0,0,1,3,3.25v25.8a3,3,0,0,1-3,3h-61.09c-33.39,0-57.28-18.73-57.28-54.84V190.77c0-36.11,23.89-54.84,57.28-54.84h14.94c32,0,56.74,18.19,56.74,50.22v3.53c0,3.26-.82,4.62-3,6.52L1140,216c-2.17,1.9-4.89,3.8-8.14,3.8ZM1096.55,168c-13.57,0-21.72,7.61-22.26,21.18h55.93c0-13.57-8.15-21.18-21.18-21.18Z"/><path class="cls-1" d="M1320.64,222.53c0,31.77-23.08,48.87-53.21,48.87h-37.2V317a3,3,0,0,1-3,3h-31.5a3,3,0,0,1-3-3V143a3,3,0,0,1,3-3h31.5a3,3,0,0,1,3,3v25.52l7.61-10.32c10.58-14.39,20.36-22.26,40.45-22.26h3.8c23.35,0,38.55,13.57,38.55,42.08Zm-90.41,16.84h32.85c11.68,0,20.1-7.33,20.1-20.37V178c0-6.25-4.08-10-9.24-10H1272c-5.7,0-10.86,5.43-18.19,13.58l-23.62,26.06Z"/><path class="cls-1" d="M1577.27,116.38a3,3,0,0,1-3,3h-68.42c-11.94,0-18.46,6-18.46,14.93v1.9c0,9.77,8.15,14.66,20.09,18.19l32.31,9.5c29.59,8.69,52.13,20.63,52.13,52.4v7.33c0,29.86-25,47.78-58.92,47.78h-80.36a3,3,0,0,1-3-3v-28a3,3,0,0,1,3-3h82.53c9.23,0,17.38-4.35,17.38-13.58v-3.8c0-13.85-14.12-17.65-33.12-23.35l-29.32-8.69c-26.61-7.87-41.81-24.16-41.81-51.58v-4.34c0-25.8,21.17-46.7,52.12-46.7h73.85a3,3,0,0,1,3,3Z"/><path class="cls-1" d="M1747.27,268.42a3.25,3.25,0,0,1-3.25,3h-31a3.25,3.25,0,0,1-3.25-3V178c0-6.25-4.07-10-9.23-10h-1.9c-5.71,0-11.14,4.89-18.74,13.58l-23.07,26.06v60.82a3,3,0,0,1-3,3h-31.49a3,3,0,0,1-3-3V83a3,3,0,0,1,3-3h31.49a3,3,0,0,1,3,3v86.06l7.6-9.23c12.76-15.48,19.55-23.89,40.45-23.89h3.8c23.35,0,38.55,13.57,38.55,42.08Z"/><path class="cls-1" d="M1812.1,219.82c1.36,12.49,9.51,19.55,21.73,19.55h60a3.26,3.26,0,0,1,3,3.25v25.8a3,3,0,0,1-3,3h-61.09c-33.39,0-57.29-18.73-57.29-54.84V190.77c0-36.11,23.9-54.84,57.29-54.84h14.93c32,0,56.74,18.19,56.74,50.22v3.53a7.22,7.22,0,0,1-3,6.52L1877.81,216c-2.18,1.9-4.89,3.8-8.15,3.8ZM1834.37,168c-13.58,0-21.72,7.61-22.27,21.18H1868c0-13.57-8.14-21.18-21.17-21.18Z"/><path class="cls-1" d="M2023.16,268.42a3,3,0,0,1-3,3H1993.3c-24.71,0-41.27-13.3-41.27-41v-57l-28.5-6.24c-1.63-.54-3-1.63-3-3.26V143a3,3,0,0,1,3-3H1952V126.7c0-2.18.27-4.35,3.26-6l26.88-13.84a6.37,6.37,0,0,1,3.26-.82c2.17,0,4.07,1.09,4.07,3.53V140h31.22a3.26,3.26,0,0,1,3.26,3v27.42a3.25,3.25,0,0,1-3.26,3H1989.5v53.76c0,7.33,3.8,12.22,11.94,12.22h18.74a3,3,0,0,1,3,3Z"/><path class="cls-1" d="M2176.45,268.42a3.25,3.25,0,0,1-3.26,3h-31a3.25,3.25,0,0,1-3.26-3V178c0-6.25-4.07-10-9.23-10h-1.9c-5.7,0-11.13,4.89-18.73,13.58L2086,207.6v60.82a3,3,0,0,1-3,3h-31.49a3,3,0,0,1-3-3V83a3,3,0,0,1,3-3h31.49a3,3,0,0,1,3,3v86.06l7.6-9.23c12.76-15.48,19.55-23.89,40.45-23.89h3.81c23.34,0,38.55,13.57,38.55,42.08Z"/></g></g></g></svg>